<?xml version="1.0" standalone="no"?>
<!DOCTYPE svg PUBLIC "-//W3C//DTD SVG 20010904//EN"
 "http://www.w3.org/TR/2001/REC-SVG-20010904/DTD/svg10.dtd">
<svg version="1.0" xmlns="http://www.w3.org/2000/svg"
 width="640.000000pt" height="640.000000pt" viewBox="0 0 640.000000 640.000000"
 preserveAspectRatio="xMidYMid meet">
<metadata>
Created by potrace 1.11, written by Peter Selinger 2001-2013
</metadata>
<g transform="translate(0.000000,640.000000) scale(0.100000,-0.100000)"
fill="#000000" stroke="none">
<path d="M2749 5825 c-177 -427 -452 -1146 -491 -1282 l-9 -33 -338 0 -339 0
-72 -177 c-40 -98 -81 -197 -91 -220 -10 -23 -19 -45 -19 -49 0 -6 -18 -50
-67 -164 -9 -19 -50 -120 -93 -225 l-78 -190 362 -5 362 -5 -58 -155 c-31 -85
-66 -177 -77 -205 -11 -27 -35 -93 -55 -145 l-34 -95 -274 -3 -274 -2 -104
-253 c-56 -138 -151 -369 -210 -512 l-107 -260 275 -3 c212 -2 273 -5 269 -15
-2 -6 -39 -97 -82 -202 -253 -620 -318 -781 -431 -1065 -69 -173 -129 -322
-133 -330 -5 -9 -11 -29 -15 -46 l-7 -31 53 8 c29 5 71 11 93 14 41 6 75 12
123 20 38 6 280 45 317 50 133 20 603 94 635 100 14 2 45 7 70 11 25 3 52 8
60 9 8 2 27 4 41 4 22 1 30 10 53 62 14 33 26 64 26 69 0 6 20 60 44 122 24
62 72 190 106 283 34 94 73 197 86 230 12 33 79 211 148 395 68 184 128 343
131 353 7 16 30 17 296 17 l289 0 -17 -42 c-26 -67 -153 -381 -163 -403 -5
-11 -35 -83 -66 -160 -31 -77 -71 -176 -89 -220 -18 -44 -61 -150 -95 -235
-34 -85 -70 -173 -80 -195 -9 -22 -52 -130 -95 -240 -42 -110 -81 -208 -86
-217 -14 -27 -11 -40 9 -34 9 3 37 8 62 11 25 3 70 10 100 15 30 5 73 12 95
15 22 4 92 15 155 25 63 10 140 22 170 25 30 4 57 8 60 10 3 2 39 8 80 14 41
6 91 14 110 17 107 17 229 35 260 40 19 3 46 7 60 9 14 3 39 7 55 9 17 2 64
10 105 17 41 6 80 12 87 12 7 0 19 21 28 45 23 69 335 913 350 947 7 17 25 64
39 105 15 41 30 84 35 95 9 19 30 77 114 305 l35 95 414 3 414 2 23 68 c13 37
29 81 36 97 7 17 20 55 30 85 10 30 20 60 24 65 3 6 6 15 8 20 1 6 29 87 63
180 78 216 170 475 177 498 5 16 -19 17 -397 17 -317 0 -401 3 -398 13 3 6 54
141 114 300 l109 287 340 0 340 0 176 493 c97 270 180 502 183 515 l7 22 -330
0 -329 0 40 103 c22 56 50 129 63 162 12 33 70 182 127 330 58 149 135 349
172 445 37 96 72 184 77 195 15 33 88 225 86 226 -6 4 -1270 3 -1277 -1 -8 -5
-141 -322 -271 -647 -57 -144 -231 -606 -311 -825 l-20 -58 -289 0 c-159 0
-289 4 -289 8 0 5 39 110 86 233 48 123 102 265 120 314 19 50 38 99 43 110 5
11 17 40 26 65 9 25 82 213 161 418 79 206 144 377 144 380 0 4 -288 7 -639 7
l-640 0 -112 -270z m1024 -1507 c-28 -96 -153 -592 -153 -608 0 -15 103 -12
315 10 104 11 230 20 280 20 l90 0 67 -118 c115 -203 238 -466 238 -511 0 -21
-1 -21 -357 -23 -311 -3 -358 -5 -356 -18 0 -8 46 -118 101 -245 55 -126 112
-267 127 -313 25 -74 26 -84 12 -105 -50 -76 -445 -470 -486 -485 -4 -1 -35
73 -70 165 -110 298 -196 508 -207 508 -6 0 -94 -75 -195 -167 -204 -185 -306
-268 -330 -268 -18 0 -176 68 -292 126 -107 54 -337 187 -337 195 0 4 27 29
60 54 90 69 495 406 497 413 1 4 -73 50 -165 102 -92 52 -221 130 -286 174
l-119 79 7 151 c3 83 12 189 20 236 18 117 56 294 66 310 6 10 43 -9 147 -77
76 -50 215 -139 308 -197 l170 -106 8 28 c4 15 27 124 52 242 24 118 57 257
72 309 l28 95 55 12 c186 43 497 91 601 93 l57 1 -25 -82z"/>
</g>
</svg>
