<?xml version="1.0" standalone="no"?>
<!DOCTYPE svg PUBLIC "-//W3C//DTD SVG 20010904//EN"
 "http://www.w3.org/TR/2001/REC-SVG-20010904/DTD/svg10.dtd">
<svg version="1.0" xmlns="http://www.w3.org/2000/svg"
 width="252.000000pt" height="252.000000pt" viewBox="0 0 252.000000 252.000000"
 preserveAspectRatio="xMidYMid meet">
<metadata>
Created by potrace 1.11, written by Peter Selinger 2001-2013
</metadata>
<g transform="translate(0.000000,252.000000) scale(0.100000,-0.100000)"
fill="#000000" stroke="none">
<path d="M1060 2325 c-169 -35 -283 -96 -400 -214 -96 -97 -141 -167 -182
-283 -101 -286 -67 -574 111 -933 170 -344 411 -630 582 -691 134 -47 280 30
454 237 157 187 301 436 381 656 189 522 16 1013 -416 1186 -77 30 -204 58
-257 56 -30 -2 -32 -3 -10 -6 15 -2 27 -9 27 -15 0 -6 7 -5 17 3 9 8 14 10 11
4 -3 -5 4 -19 15 -30 11 -11 17 -15 13 -8 -3 6 -2 14 3 17 5 4 8 -14 7 -39 -1
-25 2 -45 7 -45 5 0 4 -7 -3 -15 -9 -10 -9 -15 -1 -15 6 0 11 -7 11 -16 0 -8
-4 -13 -9 -9 -5 3 -13 0 -17 -6 -4 -7 -3 -9 3 -6 6 4 17 -1 24 -10 8 -10 9
-14 2 -10 -6 4 -14 3 -18 -3 -3 -5 -1 -10 6 -10 8 0 8 -4 2 -12 -6 -7 -9 -22
-7 -32 3 -23 34 -57 34 -38 0 7 -5 12 -12 12 -6 0 -8 3 -4 7 4 4 16 -3 27 -17
11 -14 17 -17 13 -8 -6 17 10 19 32 5 6 -3 14 -3 18 0 10 11 37 12 30 2 -8
-13 10 -11 25 4 11 10 13 9 7 -6 -4 -13 -1 -20 13 -24 14 -3 17 -12 15 -34 -2
-19 0 -28 7 -23 14 9 -12 -38 -31 -53 -13 -11 -12 -12 5 -7 11 3 5 -3 -14 -14
-25 -14 -30 -21 -20 -26 8 -3 4 -4 -8 -2 -12 2 -22 1 -21 -3 2 -18 -3 -32 -11
-27 -9 6 -26 -22 -23 -36 1 -4 -4 -5 -12 -2 -15 6 -30 -22 -19 -38 4 -7 1 -8
-8 -2 -27 17 -40 14 -28 -7 7 -15 7 -19 -3 -17 -7 2 -12 -3 -10 -11 3 -12 1
-12 -14 0 -12 9 -15 9 -10 2 4 -7 2 -13 -3 -13 -6 0 -11 -5 -11 -11 0 -5 5 -7
12 -3 7 4 8 3 4 -4 -4 -6 -14 -8 -23 -5 -11 4 -14 3 -9 -5 4 -7 2 -12 -4 -12
-6 0 -8 -5 -5 -10 8 -13 -17 -9 -28 5 -5 6 -6 0 -4 -14 4 -17 1 -25 -14 -28
-10 -3 -19 -10 -19 -17 0 -6 -5 -4 -10 4 -8 13 -10 12 -10 -2 0 -10 -5 -18
-11 -18 -5 0 -8 4 -5 9 3 5 -3 11 -15 14 -14 4 -18 2 -12 -7 4 -6 1 -5 -7 5
-9 9 -26 21 -38 28 -12 7 -20 16 -17 21 4 6 -1 7 -11 3 -10 -3 -15 -2 -12 3 7
11 -17 35 -26 27 -6 -7 -10 13 -6 36 2 13 0 13 -16 0 -11 -8 -15 -9 -10 -1 4
7 1 12 -9 12 -9 0 -13 5 -10 10 3 6 1 10 -5 10 -6 0 -8 5 -5 10 3 6 -1 10 -9
10 -15 0 -21 12 -17 34 1 5 -6 3 -15 -5 -12 -9 -15 -9 -10 -1 5 8 1 12 -11 12
-15 0 -16 2 -3 10 11 7 12 10 2 10 -7 0 -20 7 -29 15 -8 8 -19 13 -24 10 -5
-4 -6 1 -3 9 3 9 11 13 17 9 6 -3 7 -1 3 6 -6 8 -12 9 -20 2 -16 -14 -26 -4
-19 17 4 10 3 14 -2 10 -14 -13 -35 25 -23 40 8 9 7 11 -4 7 -9 -4 -15 0 -15
9 0 8 4 13 9 10 4 -3 8 3 8 14 0 10 12 29 27 41 21 19 25 20 19 6 -5 -15 -4
-16 8 -6 18 15 59 23 51 10 -4 -5 -1 -9 4 -9 6 0 11 6 11 13 0 9 3 8 9 -2 7
-11 9 -11 14 0 4 12 7 11 16 -1 9 -12 11 -12 11 -1 0 8 8 20 18 27 15 12 15
15 2 24 -13 8 -8 14 10 12 9 -1 4 47 -5 55 -4 5 -5 3 -1 -4 3 -6 2 -14 -3 -17
-10 -7 -9 20 2 30 11 11 8 26 -3 19 -16 -10 1 28 19 44 14 11 13 12 -9 6 -15
-4 -20 -3 -13 2 7 5 14 21 15 35 1 16 8 25 18 24 9 -1 14 6 14 17 -2 14 1 15
12 6 11 -9 14 -9 14 1 0 7 7 10 15 6 8 -3 15 -1 15 4 0 13 -40 11 -120 -5z
m375 -234 c3 -5 2 -12 -3 -15 -5 -3 -9 1 -9 9 0 17 3 19 12 6z m-240 -481 c3
-6 -1 -7 -9 -4 -18 7 -21 14 -7 14 6 0 13 -4 16 -10z m-206 -84 c23 0 41 4 41
9 0 6 5 3 10 -5 5 -8 10 -10 10 -5 0 7 22 9 60 5 33 -3 60 -3 60 0 0 3 24 4
52 3 38 -1 52 -5 50 -15 -2 -9 1 -9 10 2 10 11 27 14 71 10 31 -3 57 -3 57 0
0 6 131 3 137 -4 2 -2 18 0 34 4 29 9 34 4 30 -29 -2 -7 2 -10 9 -6 7 4 6 -1
-2 -14 -7 -12 -19 -19 -26 -16 -7 3 -10 0 -7 -5 3 -6 1 -10 -4 -10 -6 0 -11 5
-11 10 0 13 -32 9 -42 -5 -5 -6 -8 -4 -8 5 0 13 -1 13 -10 0 -7 -10 -12 -12
-17 -4 -12 17 -45 13 -38 -5 4 -11 0 -10 -16 5 -12 10 -19 13 -15 7 4 -7 2
-13 -3 -13 -6 0 -11 6 -11 13 0 8 -4 7 -10 -3 -5 -8 -10 -10 -10 -4 0 6 -7 11
-15 11 -10 0 -14 -6 -10 -16 4 -13 2 -12 -9 2 -15 19 -31 23 -20 5 5 -9 2 -9
-9 1 -9 7 -17 9 -17 4 0 -5 -7 -10 -15 -10 -8 0 -12 4 -10 8 3 4 -6 6 -19 5
-18 -1 -22 -4 -14 -14 8 -9 7 -11 -6 -6 -9 3 -16 10 -16 15 0 5 -5 9 -11 9 -5
0 -7 -5 -3 -11 4 -7 -1 -7 -16 1 -15 8 -20 8 -16 1 4 -6 2 -11 -3 -11 -6 0
-11 6 -11 13 0 8 -4 7 -10 -3 -5 -8 -10 -10 -10 -4 0 14 -33 14 -42 0 -6 -8
-10 -8 -15 0 -10 14 -43 14 -43 0 0 -6 -5 -4 -10 4 -8 12 -10 12 -10 1 0 -11
-3 -11 -17 0 -11 10 -14 10 -9 2 4 -7 2 -13 -3 -13 -6 0 -11 8 -12 18 0 14 -2
14 -7 2 -7 -15 -42 -24 -42 -11 0 9 -31 8 -46 -1 -16 -10 -11 45 6 62 13 14
16 14 22 0 5 -10 7 -8 7 10 1 18 4 21 10 11 5 -8 27 -14 50 -15z m-89 8 c0 -8
-19 -13 -24 -6 -3 5 1 9 9 9 8 0 15 -2 15 -3z m-127 -89 c38 -13 94 -39 124
-57 82 -50 185 -163 226 -250 136 -285 1 -423 -279 -284 -168 83 -273 218
-310 396 -21 104 -2 190 49 210 40 16 121 10 190 -15z m1169 -4 c27 -24 32
-36 36 -88 9 -126 -46 -267 -146 -374 -105 -112 -255 -184 -370 -177 -54 3
-67 8 -94 36 -27 26 -32 40 -36 92 -9 119 76 294 190 394 95 83 237 144 335
145 44 1 58 -4 85 -28z"/>
<path d="M1190 2333 c0 -4 23 -8 50 -8 65 0 65 11 0 14 -27 1 -50 -2 -50 -6z"/>
<path d="M1166 2256 c3 -8 0 -17 -7 -22 -8 -5 -10 -3 -4 7 5 8 4 11 0 6 -12
-11 -12 -57 0 -57 5 0 3 -5 -5 -10 -13 -9 -13 -10 0 -11 10 0 8 -3 -5 -9 -16
-7 -17 -9 -3 -9 9 -1 20 -5 23 -11 4 -6 -1 -7 -12 -3 -16 6 -16 5 -4 -10 7 -9
10 -17 5 -17 -5 0 -7 -23 -6 -50 3 -32 -1 -57 -10 -67 -7 -10 -8 -14 -1 -10 6
4 14 3 17 -2 4 -5 -2 -8 -11 -7 -10 2 -31 -1 -46 -5 -26 -7 -27 -6 -15 9 12
15 11 15 -14 -1 -16 -10 -29 -13 -33 -7 -3 6 -11 10 -16 10 -6 0 -8 -4 -5 -9
4 -5 -4 -7 -16 -3 -16 4 -20 2 -15 -10 3 -9 0 -22 -6 -29 -7 -8 -8 -11 -3 -7
5 4 16 -1 25 -10 9 -10 12 -13 8 -6 -4 7 -3 15 3 19 6 4 10 3 9 -2 -5 -18 22
-63 36 -63 10 0 13 -5 9 -12 -5 -7 -2 -9 8 -5 10 3 20 -4 29 -21 7 -15 12 -30
11 -34 -1 -4 4 -5 12 -2 7 3 19 -2 26 -11 11 -13 10 -15 -6 -10 -13 4 -12 2 4
-6 12 -7 22 -16 22 -21 0 -4 7 -8 16 -8 11 0 14 -5 10 -16 -4 -11 -2 -15 8
-11 8 3 20 -2 28 -11 12 -16 11 -16 -7 -2 -18 14 -19 14 -7 -2 8 -9 20 -14 28
-11 9 3 13 0 11 -8 -2 -8 -2 -11 0 -6 3 4 11 7 18 7 7 0 15 10 18 21 4 14 11
20 21 16 10 -4 14 0 11 13 -3 14 1 17 12 13 11 -4 14 -2 9 5 -6 11 5 16 26 13
4 0 5 6 1 15 -4 10 2 17 16 21 11 3 18 9 16 14 -3 4 9 13 27 18 21 6 26 10 13
10 -19 2 -19 2 -1 16 11 8 15 19 10 27 -5 9 -2 8 11 -2 17 -14 18 -13 12 2 -4
12 -2 15 7 12 8 -3 17 0 22 7 5 8 3 10 -7 3 -9 -5 -8 0 3 16 41 58 41 60 8 60
-18 0 -29 4 -25 10 11 17 -7 11 -21 -7 -7 -10 -14 -13 -14 -8 0 6 -22 9 -48 9
l-48 -1 1 34 c1 18 5 36 8 40 4 3 2 12 -4 20 -9 10 -7 18 7 34 13 15 14 18 3
14 -10 -4 -16 0 -16 9 0 8 3 13 7 11 4 -2 7 2 7 10 0 8 -4 12 -9 9 -4 -3 -8
-1 -8 5 0 5 6 12 13 14 9 4 8 8 -3 16 -13 9 -12 11 5 11 16 0 17 2 5 9 -8 6
-19 8 -25 5 -5 -3 -3 1 7 7 14 12 14 15 -9 32 -19 15 -27 17 -33 7 -5 -8 -9
-9 -14 -1 -4 6 -13 11 -19 11 -7 0 -6 -4 3 -10 9 -6 10 -10 3 -10 -6 0 -15 5
-19 11 -4 8 -9 7 -15 -2 -8 -12 -11 -11 -19 1 -9 13 -10 13 -10 0 0 -13 -1
-13 -10 0 -8 12 -10 12 -11 -5 0 -15 -2 -16 -7 -5 -9 19 -33 25 -26 6z"/>
<path d="M956 1952 c-3 -5 1 -9 9 -9 8 0 12 4 9 9 -3 4 -7 8 -9 8 -2 0 -6 -4
-9 -8z"/>
<path d="M1525 1930 c-10 -11 -13 -20 -7 -20 6 0 16 9 22 20 6 11 9 20 7 20
-2 0 -12 -9 -22 -20z"/>
<path d="M1070 1819 c0 -5 5 -7 10 -4 6 3 10 8 10 11 0 2 -4 4 -10 4 -5 0 -10
-5 -10 -11z"/>
</g>
</svg>
